HIERARCHY
ROOT Hips
{
  OFFSET 5.72205e-005 65.662 3.42586
  CHANNELS 6 Xposition Yposition Zposition Zrotation Xrotation Yrotation
  JOINT Chest
  {
    OFFSET 0 8.7983 -4.7612
    CHANNELS 3 Zrotation Xrotation Yrotation
    JOINT Chest2
    {
      OFFSET 0 8.0291 0.4195
      CHANNELS 3 Zrotation Xrotation Yrotation
      JOINT Chest3
      {
        OFFSET 0 9.9351 -2.2114
        CHANNELS 3 Zrotation Xrotation Yrotation
        JOINT Neck
        {
          OFFSET 0 22.3885 -0.4656
          CHANNELS 3 Zrotation Xrotation Yrotation
          JOINT Head
          {
            OFFSET -0.0001 12.643 3.4389
            CHANNELS 3 Zrotation Xrotation Yrotation
            End Site
            {
              OFFSET 0.0001 17.6655 0.5274
            }
          }
        }
        JOINT LeftCollar
        {
          OFFSET 2.2603 21.606 7.4023
          CHANNELS 3 Zrotation Xrotation Yrotation
          JOINT LeftShoulder
          {
            OFFSET 13.5163 -1.1332 -5.0146
            CHANNELS 3 Zrotation Xrotation Yrotation
            JOINT LeftElbow
            {
              OFFSET -0.0995 -28.05 -0.2431
              CHANNELS 3 Zrotation Xrotation Yrotation
              JOINT LeftWrist
              {
                OFFSET 0.0679 -23.3996 -0.1402
                CHANNELS 3 Zrotation Xrotation Yrotation
                JOINT LeftFinger1
                {
                  OFFSET 0.7932 -9.069 2.5189
                  CHANNELS 3 Zrotation Xrotation Yrotation
                  JOINT LeftFinger11
                  {
                    OFFSET -0.8272 -3.3923 0.5977
                    CHANNELS 3 Zrotation Xrotation Yrotation
                    JOINT LeftFinger12
                    {
                      OFFSET -0.5649 -2.3158 0.4082
                      CHANNELS 3 Zrotation Xrotation Yrotation
                      End Site
                      {
                        OFFSET -0.4919 -1.6479 0.2673
                      }
                    }
                  }
                }
                JOINT LeftFinger2
                {
                  OFFSET 0.9159 -9.2044 0.2193
                  CHANNELS 3 Zrotation Xrotation Yrotation
                  JOINT LeftFinger21
                  {
                    OFFSET 0.0117 -4.1944 -0.0248
                    CHANNELS 3 Zrotation Xrotation Yrotation
                    JOINT LeftFinger22
                    {
                      OFFSET 0.0071 -2.3249 -0.0142
                      CHANNELS 3 Zrotation Xrotation Yrotation
                      End Site
                      {
                        OFFSET -0.1475 -2.0882 0.0028
                      }
                    }
                  }
                }
                JOINT LeftFinger3
                {
                  OFFSET 0.6113 -8.7231 -2.0637
                  CHANNELS 3 Zrotation Xrotation Yrotation
                  JOINT LeftFinger31
                  {
                    OFFSET -0.1927 -3.8059 -0.2383
                    CHANNELS 3 Zrotation Xrotation Yrotation
                    JOINT LeftFinger32
                    {
                      OFFSET -0.1091 -2.1688 -0.1362
                      CHANNELS 3 Zrotation Xrotation Yrotation
                      End Site
                      {
                        OFFSET -0.2358 -1.9176 -0.0906
                      }
                    }
                  }
                }
                JOINT LeftFinger4
                {
                  OFFSET -0.6151 -8.0947 -3.5641
                  CHANNELS 3 Zrotation Xrotation Yrotation
                  JOINT LeftFinger41
                  {
                    OFFSET -0.4882 -2.341 -0.6462
                    CHANNELS 3 Zrotation Xrotation Yrotation
                    JOINT LeftFinger42
                    {
                      OFFSET -0.3575 -1.7167 -0.4742
                      CHANNELS 3 Zrotation Xrotation Yrotation
                      End Site
                      {
                        OFFSET -0.4187 -1.5237 -0.3496
                      }
                    }
                  }
                }
                JOINT LeftFinger0
                {
                  OFFSET -1.42 -1.8761 1.4223
                  CHANNELS 3 Zrotation Xrotation Yrotation
                  JOINT LeftFinger01
                  {
                    OFFSET -1.1471 -3.4929 2.6334
                    CHANNELS 3 Zrotation Xrotation Yrotation
                    JOINT LeftFinger02
                    {
                      OFFSET -0.823 -2.3 1.6571
                      CHANNELS 3 Zrotation Xrotation Yrotation
                      End Site
                      {
                        OFFSET -0.5822 -1.6914 1.1582
                      }
                    }
                  }
                }
              }
            }
          }
        }
        JOINT RightCollar
        {
          OFFSET -2.2603 21.606 7.4023
          CHANNELS 3 Zrotation Xrotation Yrotation
          JOINT RightShoulder
          {
            OFFSET -13.5187 -1.1334 -5.0155
            CHANNELS 3 Zrotation Xrotation Yrotation
            JOINT RightElbow
            {
              OFFSET 0.0994 -28.0499 -0.2431
              CHANNELS 3 Zrotation Xrotation Yrotation
              JOINT RightWrist
              {
                OFFSET -0.0679 -23.3996 -0.1402
                CHANNELS 3 Zrotation Xrotation Yrotation
                JOINT RightFinger1
                {
                  OFFSET -0.7932 -9.0691 2.5189
                  CHANNELS 3 Zrotation Xrotation Yrotation
                  JOINT RightFinger11
                  {
                    OFFSET 0.8272 -3.3923 0.5977
                    CHANNELS 3 Zrotation Xrotation Yrotation
                    JOINT RightFinger12
                    {
                      OFFSET 0.565 -2.3158 0.4082
                      CHANNELS 3 Zrotation Xrotation Yrotation
                      End Site
                      {
                        OFFSET 0.4919 -1.6479 0.2673
                      }
                    }
                  }
                }
                JOINT RightFinger2
                {
                  OFFSET -0.916 -9.2044 0.2193
                  CHANNELS 3 Zrotation Xrotation Yrotation
                  JOINT RightFinger21
                  {
                    OFFSET -0.0117 -4.1944 -0.0248
                    CHANNELS 3 Zrotation Xrotation Yrotation
                    JOINT RightFinger22
                    {
                      OFFSET -0.0071 -2.3249 -0.0142
                      CHANNELS 3 Zrotation Xrotation Yrotation
                      End Site
                      {
                        OFFSET 0.1475 -2.0882 0.0028
                      }
                    }
                  }
                }
                JOINT RightFinger3
                {
                  OFFSET -0.6113 -8.7231 -2.0637
                  CHANNELS 3 Zrotation Xrotation Yrotation
                  JOINT RightFinger31
                  {
                    OFFSET 0.1927 -3.8059 -0.2383
                    CHANNELS 3 Zrotation Xrotation Yrotation
                    JOINT RightFinger32
                    {
                      OFFSET 0.1091 -2.1688 -0.1362
                      CHANNELS 3 Zrotation Xrotation Yrotation
                      End Site
                      {
                        OFFSET 0.2358 -1.9176 -0.0906
                      }
                    }
                  }
                }
                JOINT RightFinger4
                {
                  OFFSET 0.6151 -8.0947 -3.564
                  CHANNELS 3 Zrotation Xrotation Yrotation
                  JOINT RightFinger41
                  {
                    OFFSET 0.4882 -2.341 -0.6462
                    CHANNELS 3 Zrotation Xrotation Yrotation
                    JOINT RightFinger42
                    {
                      OFFSET 0.3574 -1.7166 -0.4742
                      CHANNELS 3 Zrotation Xrotation Yrotation
                      End Site
                      {
                        OFFSET 0.4187 -1.5237 -0.3496
                      }
                    }
                  }
                }
                JOINT RightFinger0
                {
                  OFFSET 1.4199 -1.8761 1.4221
                  CHANNELS 3 Zrotation Xrotation Yrotation
                  JOINT RightFinger01
                  {
                    OFFSET 1.1472 -3.4929 2.6336
                    CHANNELS 3 Zrotation Xrotation Yrotation
                    JOINT RightFinger02
                    {
                      OFFSET 0.8229 -2.3 1.6571
                      CHANNELS 3 Zrotation Xrotation Yrotation
                      End Site
                      {
                        OFFSET 0.5822 -1.6914 1.1582
                      }
                    }
                  }
                }
              }
            }
          }
        }
      }
    }
  }
  JOINT RightHip
  {
    OFFSET -9.412 3.9771 -0.7758
    CHANNELS 3 Zrotation Xrotation Yrotation
    JOINT RightKnee
    {
      OFFSET -0.7531 -40.938 0
      CHANNELS 3 Zrotation Xrotation Yrotation
      JOINT RightAnkle
      {
        OFFSET 0 -40.1986 0
        CHANNELS 3 Zrotation Xrotation Yrotation
        JOINT RightToe
        {
          OFFSET 0 -4.4182 9.239
          CHANNELS 3 Zrotation Xrotation Yrotation
          End Site
          {
            OFFSET 0 0 6.1981
          }
        }
      }
    }
  }
  JOINT LeftHip
  {
    OFFSET 9.4119 3.9773 -0.7758
    CHANNELS 3 Zrotation Xrotation Yrotation
    JOINT LeftKnee
    {
      OFFSET 0.7532 -40.9383 0
      CHANNELS 3 Zrotation Xrotation Yrotation
      JOINT LeftAnkle
      {
        OFFSET 0 -40.1986 0
        CHANNELS 3 Zrotation Xrotation Yrotation
        JOINT LeftToe
        {
          OFFSET 0 -4.4182 9.239
          CHANNELS 3 Zrotation Xrotation Yrotation
          End Site
          {
            OFFSET 0 0 6.1981
          }
        }
      }
    }
  }
}
MOTION
Frames:	4
Frame Time:	0.0333333
5.72205e-005 65.662 3.42586 0 0 -0 0 0 -0 0 0 -0 0 0 -0 0 0 -0 0 0 -0 0 0 -12.5014 88.1196 14.2451 10.6914 -0.00160068 -0.00239207 0.000740045 -8.4365e-005 7.00714e-005 -9.52055e-007 9.93923e-017 -1.98785e-016 -1.59028e-015 9.93923e-017 -5.96354e-016 -1.59028e-015 -9.93923e-017 -5.96354e-016 -1.59028e-015 9.93923e-017 -1.98785e-016 -1.59028e-015 -0.0128176 0.00232552 8.52707e-005 9.93923e-017 5.96354e-016 -0 9.93923e-017 -1.98785e-016 -1.59028e-015 -0.0160551 0.00299681 0.000857156 -2.48481e-016 0 3.18055e-015 9.93923e-017 -1.98785e-016 -1.59028e-015 -0.0125865 0.0031206 0.00282719 0 1.98785e-016 -0 9.93923e-017 -1.98785e-016 -1.59028e-015 9.93923e-017 -5.96354e-016 -1.59028e-015 -9.93923e-017 -5.96354e-016 -1.59028e-015 -0.865644 0.16582 7.03859 -88.0329 10.2057 -10.5567 0.0015593 -0.00248883 -0.000788628 7.87605e-005 4.10553e-005 1.24965e-005 -3.97569e-016 -7.95139e-016 3.18055e-015 -1.98785e-016 -3.97569e-016 3.18055e-015 -1.98785e-016 0 3.18055e-015 -3.97569e-016 -7.95139e-016 3.18055e-015 0.0129473 0.00231697 -8.70038e-005 9.93923e-017 -7.95139e-016 1.59028e-015 -3.97569e-016 -7.95139e-016 3.18055e-015 0.0163314 0.00303369 -0.000872333 3.97569e-016 7.95139e-016 -3.18055e-015 -3.97569e-016 -7.95139e-016 3.18055e-015 0.0145763 0.00367772 -0.00326275 9.93923e-017 -3.97569e-016 -0 -3.97569e-016 -7.95139e-016 3.18055e-015 -1.98785e-016 -3.97569e-016 3.18055e-015 -1.98785e-016 0 3.18055e-015 3.42482 1.32465 -0.0626183 0.000117508 0.717283 0.000978199 -3.4257 -2.04197 -0.0604716 6.47761e-025 0 -0 -3.42483 1.34017 0.0627307 -0.000193936 0.682302 -0.0013703 3.42574 -2.02253 0.0595886 -8.45714e-024 0 -7.40531e-025 
39.8405 34.9569 20.1384 179.994 51.0033 0.0125391 -0.169935 -1.41776 0.139929 -0.33656 -2.83594 0.275777 -0.33656 -2.83597 0.275777 2.78784e-006 15.9935 -1.88941e-006 5.33474e-008 10.996 1.41099e-007 6.16073 1.44715 5.38297 99.599 31.7352 -53.3974 -39.3989 -32.402 -75.9566 1.74911 8.0473 1.64869 -3.18055e-015 -3.18055e-015 -6.36111e-015 1.76556e-031 3.18055e-015 -3.18055e-015 3.18055e-015 0 -9.54166e-015 -3.18055e-015 -3.18055e-015 -6.36111e-015 -0.0128293 0.0023242 9.48006e-005 3.56943e-006 -2.30564e-006 5.00709e-006 -3.18055e-015 -3.18055e-015 -6.36111e-015 -0.0160503 0.00299467 0.00085532 -6.36111e-015 -3.18055e-015 9.54166e-015 -3.18055e-015 -3.18055e-015 -6.36111e-015 -0.0125974 0.00312083 0.00283098 3.18055e-015 -6.36111e-015 -6.36111e-015 -3.18055e-015 -3.18055e-015 -6.36111e-015 1.76556e-031 3.18055e-015 -3.18055e-015 3.18055e-015 0 -9.54166e-015 -6.95443 1.87511 -10.842 -99.9386 26.366 52.9836 39.0802 -34.1267 75.9477 -1.71583 8.06937 -1.55159 4.40258e-006 1.51682e-005 4.03999e-006 -5.50322e-006 -1.08296e-005 -5.04999e-006 6.36111e-015 -3.18055e-015 3.18055e-015 4.40258e-006 1.51682e-005 4.03999e-006 0.0129901 0.00232652 -8.65542e-005 -1.33336e-005 -1.2231e-005 2.22829e-006 4.40258e-006 1.51682e-005 4.03999e-006 0.0163159 0.00303196 -0.000879408 -3.53113e-031 3.18055e-015 6.36111e-015 4.40258e-006 1.51682e-005 4.03999e-006 0.0144775 0.00365992 -0.00324985 1.10319e-006 -2.60618e-006 3.1719e-006 4.40258e-006 1.51682e-005 4.03999e-006 -5.50322e-006 -1.08296e-005 -5.04999e-006 6.36111e-015 -3.18055e-015 3.18055e-015 -40.4015 34.2954 -26.1439 -73.193 39.2362 73.7976 20.0553 10.0153 9.97202 1.59028e-015 3.18055e-015 -3.18055e-015 40.9413 33.9835 26.0402 73.7382 39.5162 -74.1548 -19.7162 9.84962 -10.665 4.17398e-006 -2.74005e-007 -1.71898e-006 
39.8412 34.9562 20.1387 179.994 51.0054 0.0125394 -0.170279 -1.48408 0.139326 -0.337115 -2.96859 0.274376 -0.337115 -2.96859 0.274375 4.41907e-006 15.9935 -2.96532e-006 -1.548e-007 12.2665 -8.59788e-008 6.2289 1.54648 5.67008 99.5974 31.7222 -53.3956 -39.3989 -32.402 -75.9566 1.74533 7.89112 1.39046 -3.18055e-015 6.36111e-015 -3.18055e-015 -0 -3.18055e-015 -0 3.18055e-015 -3.18055e-015 6.36111e-015 -3.18055e-015 6.36111e-015 -3.18055e-015 -0.0128136 0.00232261 8.36035e-005 3.18055e-015 -6.36111e-015 -9.54166e-015 -3.18055e-015 6.36111e-015 -3.18055e-015 -0.0160633 0.00299235 0.00085545 6.36111e-015 -3.18055e-015 6.36111e-015 -3.18055e-015 6.36111e-015 -3.18055e-015 -0.0126012 0.00312095 0.00282428 -3.18055e-015 6.36111e-015 -0 -3.18055e-015 6.36111e-015 -3.18055e-015 -0 -3.18055e-015 -0 3.18055e-015 -3.18055e-015 6.36111e-015 -7.01224 1.9702 -11.1123 -99.9386 26.366 52.9835 39.0802 -34.1267 75.9478 -1.71572 7.91896 -1.28875 6.36111e-015 0 -0 6.36111e-015 -3.18055e-015 -3.18055e-015 0 0 -3.18055e-015 6.36111e-015 0 -0 0.012926 0.00230551 -8.12487e-005 9.54166e-015 3.18055e-015 -0 6.36111e-015 0 -0 0.0162851 0.00302534 -0.000870082 7.31072e-009 -2.19977e-006 2.16647e-006 6.36111e-015 0 -0 0.0145083 0.00366539 -0.00324785 6.36111e-015 6.36111e-015 6.36111e-015 6.36111e-015 0 -0 6.36111e-015 -3.18055e-015 -3.18055e-015 0 0 -3.18055e-015 -41.1192 34.0421 -26.4668 -73.1866 39.2354 73.7798 19.2546 10.2259 10.7588 -1.96616e-006 2.65798e-007 -1.40177e-006 41.4492 33.8012 26.3122 73.735 39.5158 -74.1436 -19.1446 10.0056 -11.2286 1.45488e-006 -4.85826e-006 -6.20561e-006 
39.842 34.9557 20.1392 179.994 51.0054 0.0125393 -0.170624 -1.55055 0.138721 -0.337675 -3.10149 0.27297 -0.337675 -3.10149 0.27297 1.0768e-005 15.9935 -7.48063e-006 1.69804e-007 13.5394 1.32552e-007 6.29658 1.6462 5.95711 99.5959 31.7092 -53.3939 -39.399 -32.402 -75.9566 1.74079 7.73497 1.13234 8.41829e-006 -9.87896e-006 -5.25911e-006 -3.18055e-015 -6.36111e-015 6.36111e-015 -7.24093e-006 3.63054e-006 4.02223e-006 8.41829e-006 -9.87896e-006 -5.25911e-006 -0.0128368 0.00233274 8.81131e-005 3.18055e-015 -3.18055e-015 9.54166e-015 8.41829e-006 -9.87896e-006 -5.25911e-006 -0.0160549 0.00299952 0.000853298 -3.18055e-015 -9.54166e-015 4.77083e-015 8.41829e-006 -9.87896e-006 -5.25911e-006 -0.012604 0.00311491 0.00282744 -9.59777e-006 1.40224e-005 6.49587e-006 8.41829e-006 -9.87896e-006 -5.25911e-006 -3.18055e-015 -6.36111e-015 6.36111e-015 -7.24093e-006 3.63054e-006 4.02223e-006 -7.0696 2.06561 -11.3825 -99.9386 26.366 52.9836 39.0802 -34.1267 75.9477 -1.71489 7.7685 -1.02596 -6.36111e-015 6.36111e-015 -1.27222e-014 3.18055e-015 6.36111e-015 -1.59028e-014 3.53113e-031 3.18055e-015 -6.36111e-015 -6.36111e-015 6.36111e-015 -1.27222e-014 0.0129537 0.00231102 -8.53372e-005 -0 0 6.36111e-015 -6.36111e-015 6.36111e-015 -1.27222e-014 0.016358 0.00303872 -0.000880312 -6.36111e-015 -3.18055e-015 -6.36111e-015 -6.36111e-015 6.36111e-015 -1.27222e-014 0.0146142 0.00368019 -0.00327776 -1.12584e-006 2.19771e-006 -3.16808e-006 -6.36111e-015 6.36111e-015 -1.27222e-014 3.18055e-015 6.36111e-015 -1.59028e-014 3.53113e-031 3.18055e-015 -6.36111e-015 -41.8374 33.7919 -26.7931 -73.1803 39.2345 73.7623 18.4496 10.4257 11.5499 -1.96597e-006 -4.1421e-008 -1.40196e-006 41.9573 33.6208 26.5859 73.732 39.5154 -74.1324 -18.5708 10.1558 -11.7943 -7.95139e-016 -3.18055e-015 3.18055e-015 
